<mxfile host="app.diagrams.net" modified="2020-11-04T08:45:12.437Z" agent="5.0 (Macintosh; Intel Mac OS X 10_15_7) AppleWebKit/537.36 (KHTML, like Gecko) Chrome/85.0.4183.121 Safari/537.36" etag="OKlzBo4qEnpzjyb-Jjlh" version="13.8.9-1" type="github">
  <diagram id="PffAFQd2I-EF13QZNPvq" name="Page-1">
    <mxGraphModel dx="1042" dy="603" grid="1" gridSize="10" guides="1" tooltips="1" connect="1" arrows="1" fold="1" page="1" pageScale="1" pageWidth="1169" pageHeight="826" math="0" shadow="0">
      <root>
        <mxCell id="0" />
        <mxCell id="1" parent="0" />
        <mxCell id="8tvUs0CyN3Y6ZN8EFVeN-13" value="" style="edgeStyle=orthogonalEdgeStyle;rounded=0;orthogonalLoop=1;jettySize=auto;html=1;fontFamily=Verdana;" edge="1" parent="1" source="8tvUs0CyN3Y6ZN8EFVeN-10" target="8tvUs0CyN3Y6ZN8EFVeN-12">
          <mxGeometry relative="1" as="geometry" />
        </mxCell>
        <mxCell id="8tvUs0CyN3Y6ZN8EFVeN-10" value="syslog日志收集&lt;br&gt;" style="rounded=0;whiteSpace=wrap;html=1;labelBackgroundColor=none;fontFamily=Verdana;align=center;fillColor=#dae8fc;strokeColor=#6c8ebf;" vertex="1" parent="1">
          <mxGeometry x="160" y="80" width="580" height="40" as="geometry" />
        </mxCell>
        <mxCell id="8tvUs0CyN3Y6ZN8EFVeN-12" value="日志解析" style="rounded=0;whiteSpace=wrap;html=1;labelBackgroundColor=none;fontFamily=Verdana;align=center;fillColor=#dae8fc;strokeColor=#6c8ebf;" vertex="1" parent="1">
          <mxGeometry x="160" y="140" width="580" height="40" as="geometry" />
        </mxCell>
        <mxCell id="8tvUs0CyN3Y6ZN8EFVeN-15" value="命中策略名称" style="rounded=1;whiteSpace=wrap;html=1;labelBackgroundColor=none;fontFamily=Verdana;align=center;" vertex="1" parent="1">
          <mxGeometry x="160" y="190" width="90" height="40" as="geometry" />
        </mxCell>
        <mxCell id="8tvUs0CyN3Y6ZN8EFVeN-16" value="源地址" style="rounded=1;whiteSpace=wrap;html=1;labelBackgroundColor=none;fontFamily=Verdana;align=center;" vertex="1" parent="1">
          <mxGeometry x="260" y="190" width="90" height="40" as="geometry" />
        </mxCell>
        <mxCell id="8tvUs0CyN3Y6ZN8EFVeN-17" value="目的地址" style="rounded=1;whiteSpace=wrap;html=1;labelBackgroundColor=none;fontFamily=Verdana;align=center;" vertex="1" parent="1">
          <mxGeometry x="370" y="190" width="90" height="40" as="geometry" />
        </mxCell>
        <mxCell id="8tvUs0CyN3Y6ZN8EFVeN-18" value="命中时间" style="rounded=1;whiteSpace=wrap;html=1;labelBackgroundColor=none;fontFamily=Verdana;align=center;" vertex="1" parent="1">
          <mxGeometry x="480" y="190" width="90" height="40" as="geometry" />
        </mxCell>
      </root>
    </mxGraphModel>
  </diagram>
</mxfile>
